<svg xmlns="http://www.w3.org/2000/svg" viewBox="0 0 336 216" fill="none">
<circle cx="210.0" cy="6.0" r="0.35" fill="#09090B"/>
<circle cx="222.0" cy="6.0" r="0.35" fill="#09090B"/>
<circle cx="234.0" cy="6.0" r="0.35" fill="#09090B"/>
<circle cx="246.0" cy="6.0" r="0.35" fill="#09090B"/>
<circle cx="258.0" cy="6.0" r="0.36" fill="#09090B"/>
<circle cx="270.0" cy="6.0" r="0.47" fill="#09090B"/>
<circle cx="282.0" cy="6.0" r="0.59" fill="#09090B"/>
<circle cx="294.0" cy="6.0" r="0.70" fill="#09090B"/>
<circle cx="306.0" cy="6.0" r="0.83" fill="#09090B"/>
<circle cx="318.0" cy="6.0" r="0.95" fill="#09090B"/>
<circle cx="330.0" cy="6.0" r="1.08" fill="#09090B"/>
<circle cx="198.0" cy="18.0" r="0.35" fill="#09090B"/>
<circle cx="210.0" cy="18.0" r="0.35" fill="#09090B"/>
<circle cx="222.0" cy="18.0" r="0.35" fill="#09090B"/>
<circle cx="234.0" cy="18.0" r="0.35" fill="#09090B"/>
<circle cx="246.0" cy="18.0" r="0.43" fill="#09090B"/>
<circle cx="258.0" cy="18.0" r="0.54" fill="#09090B"/>
<circle cx="270.0" cy="18.0" r="0.65" fill="#09090B"/>
<circle cx="282.0" cy="18.0" r="0.78" fill="#09090B"/>
<circle cx="294.0" cy="18.0" r="0.90" fill="#09090B"/>
<circle cx="306.0" cy="18.0" r="1.03" fill="#09090B"/>
<circle cx="318.0" cy="18.0" r="1.16" fill="#09090B"/>
<circle cx="330.0" cy="18.0" r="1.29" fill="#09090B"/>
<circle cx="174.0" cy="30.0" r="0.35" fill="#09090B"/>
<circle cx="186.0" cy="30.0" r="0.35" fill="#09090B"/>
<circle cx="198.0" cy="30.0" r="0.35" fill="#09090B"/>
<circle cx="210.0" cy="30.0" r="0.35" fill="#09090B"/>
<circle cx="222.0" cy="30.0" r="0.38" fill="#09090B"/>
<circle cx="234.0" cy="30.0" r="0.49" fill="#09090B"/>
<circle cx="246.0" cy="30.0" r="0.61" fill="#09090B"/>
<circle cx="258.0" cy="30.0" r="0.73" fill="#09090B"/>
<circle cx="270.0" cy="30.0" r="0.85" fill="#09090B"/>
<circle cx="282.0" cy="30.0" r="0.97" fill="#09090B"/>
<circle cx="294.0" cy="30.0" r="1.11" fill="#09090B"/>
<circle cx="306.0" cy="30.0" r="1.24" fill="#09090B"/>
<circle cx="318.0" cy="30.0" r="1.37" fill="#09090B"/>
<circle cx="330.0" cy="30.0" r="1.51" fill="#09090B"/>
<circle cx="150.0" cy="42.0" r="0.35" fill="#09090B"/>
<circle cx="162.0" cy="42.0" r="0.35" fill="#09090B"/>
<circle cx="174.0" cy="42.0" r="0.35" fill="#09090B"/>
<circle cx="186.0" cy="42.0" r="0.35" fill="#09090B"/>
<circle cx="198.0" cy="42.0" r="0.35" fill="#09090B"/>
<circle cx="210.0" cy="42.0" r="0.45" fill="#09090B"/>
<circle cx="222.0" cy="42.0" r="0.56" fill="#09090B"/>
<circle cx="234.0" cy="42.0" r="0.68" fill="#09090B"/>
<circle cx="246.0" cy="42.0" r="0.80" fill="#09090B"/>
<circle cx="258.0" cy="42.0" r="0.92" fill="#09090B"/>
<circle cx="270.0" cy="42.0" r="1.05" fill="#09090B"/>
<circle cx="282.0" cy="42.0" r="1.18" fill="#09090B"/>
<circle cx="294.0" cy="42.0" r="1.32" fill="#09090B"/>
<circle cx="306.0" cy="42.0" r="1.46" fill="#09090B"/>
<circle cx="318.0" cy="42.0" r="1.60" fill="#09090B"/>
<circle cx="330.0" cy="42.0" r="1.74" fill="#09090B"/>
<circle cx="138.0" cy="54.0" r="0.35" fill="#09090B"/>
<circle cx="150.0" cy="54.0" r="0.35" fill="#09090B"/>
<circle cx="162.0" cy="54.0" r="0.35" fill="#09090B"/>
<circle cx="174.0" cy="54.0" r="0.35" fill="#09090B"/>
<circle cx="186.0" cy="54.0" r="0.40" fill="#09090B"/>
<circle cx="198.0" cy="54.0" r="0.51" fill="#09090B"/>
<circle cx="210.0" cy="54.0" r="0.63" fill="#09090B"/>
<circle cx="222.0" cy="54.0" r="0.75" fill="#09090B"/>
<circle cx="234.0" cy="54.0" r="0.87" fill="#09090B"/>
<circle cx="246.0" cy="54.0" r="1.00" fill="#09090B"/>
<circle cx="258.0" cy="54.0" r="1.13" fill="#09090B"/>
<circle cx="270.0" cy="54.0" r="1.26" fill="#09090B"/>
<circle cx="282.0" cy="54.0" r="1.40" fill="#09090B"/>
<circle cx="294.0" cy="54.0" r="1.54" fill="#09090B"/>
<circle cx="306.0" cy="54.0" r="1.68" fill="#09090B"/>
<circle cx="318.0" cy="54.0" r="1.82" fill="#09090B"/>
<circle cx="330.0" cy="54.0" r="1.97" fill="#09090B"/>
<circle cx="114.0" cy="66.0" r="0.35" fill="#09090B"/>
<circle cx="126.0" cy="66.0" r="0.35" fill="#09090B"/>
<circle cx="138.0" cy="66.0" r="0.35" fill="#09090B"/>
<circle cx="150.0" cy="66.0" r="0.35" fill="#09090B"/>
<circle cx="162.0" cy="66.0" r="0.36" fill="#09090B"/>
<circle cx="174.0" cy="66.0" r="0.47" fill="#09090B"/>
<circle cx="186.0" cy="66.0" r="0.58" fill="#09090B"/>
<circle cx="198.0" cy="66.0" r="0.70" fill="#09090B"/>
<circle cx="210.0" cy="66.0" r="0.82" fill="#09090B"/>
<circle cx="222.0" cy="66.0" r="0.94" fill="#09090B"/>
<circle cx="234.0" cy="66.0" r="1.07" fill="#09090B"/>
<circle cx="246.0" cy="66.0" r="1.21" fill="#09090B"/>
<circle cx="258.0" cy="66.0" r="1.34" fill="#09090B"/>
<circle cx="270.0" cy="66.0" r="1.48" fill="#09090B"/>
<circle cx="282.0" cy="66.0" r="1.62" fill="#09090B"/>
<circle cx="294.0" cy="66.0" r="1.76" fill="#09090B"/>
<circle cx="306.0" cy="66.0" r="1.91" fill="#09090B"/>
<circle cx="318.0" cy="66.0" r="2.06" fill="#09090B"/>
<circle cx="330.0" cy="66.0" r="2.21" fill="#09090B"/>
<circle cx="102.0" cy="78.0" r="0.35" fill="#09090B"/>
<circle cx="114.0" cy="78.0" r="0.35" fill="#09090B"/>
<circle cx="126.0" cy="78.0" r="0.35" fill="#09090B"/>
<circle cx="138.0" cy="78.0" r="0.35" fill="#09090B"/>
<circle cx="150.0" cy="78.0" r="0.42" fill="#09090B"/>
<circle cx="162.0" cy="78.0" r="0.53" fill="#09090B"/>
<circle cx="174.0" cy="78.0" r="0.65" fill="#09090B"/>
<circle cx="186.0" cy="78.0" r="0.77" fill="#09090B"/>
<circle cx="198.0" cy="78.0" r="0.89" fill="#09090B"/>
<circle cx="210.0" cy="78.0" r="1.02" fill="#09090B"/>
<circle cx="222.0" cy="78.0" r="1.15" fill="#09090B"/>
<circle cx="234.0" cy="78.0" r="1.29" fill="#09090B"/>
<circle cx="246.0" cy="78.0" r="1.42" fill="#09090B"/>
<circle cx="258.0" cy="78.0" r="1.56" fill="#09090B"/>
<circle cx="270.0" cy="78.0" r="1.71" fill="#09090B"/>
<circle cx="282.0" cy="78.0" r="1.85" fill="#09090B"/>
<circle cx="294.0" cy="78.0" r="2.00" fill="#09090B"/>
<circle cx="306.0" cy="78.0" r="2.15" fill="#09090B"/>
<circle cx="318.0" cy="78.0" r="2.30" fill="#09090B"/>
<circle cx="330.0" cy="78.0" r="2.45" fill="#09090B"/>
<circle cx="78.0" cy="90.0" r="0.35" fill="#09090B"/>
<circle cx="90.0" cy="90.0" r="0.35" fill="#09090B"/>
<circle cx="102.0" cy="90.0" r="0.35" fill="#09090B"/>
<circle cx="114.0" cy="90.0" r="0.35" fill="#09090B"/>
<circle cx="126.0" cy="90.0" r="0.38" fill="#09090B"/>
<circle cx="138.0" cy="90.0" r="0.49" fill="#09090B"/>
<circle cx="150.0" cy="90.0" r="0.60" fill="#09090B"/>
<circle cx="162.0" cy="90.0" r="0.72" fill="#09090B"/>
<circle cx="174.0" cy="90.0" r="0.84" fill="#09090B"/>
<circle cx="186.0" cy="90.0" r="0.97" fill="#09090B"/>
<circle cx="198.0" cy="90.0" r="1.10" fill="#09090B"/>
<circle cx="210.0" cy="90.0" r="1.23" fill="#09090B"/>
<circle cx="222.0" cy="90.0" r="1.37" fill="#09090B"/>
<circle cx="234.0" cy="90.0" r="1.51" fill="#09090B"/>
<circle cx="246.0" cy="90.0" r="1.65" fill="#09090B"/>
<circle cx="258.0" cy="90.0" r="1.79" fill="#09090B"/>
<circle cx="270.0" cy="90.0" r="1.94" fill="#09090B"/>
<circle cx="282.0" cy="90.0" r="2.09" fill="#09090B"/>
<circle cx="294.0" cy="90.0" r="2.24" fill="#09090B"/>
<circle cx="306.0" cy="90.0" r="2.39" fill="#09090B"/>
<circle cx="318.0" cy="90.0" r="2.54" fill="#09090B"/>
<circle cx="330.0" cy="90.0" r="2.70" fill="#09090B"/>
<circle cx="54.0" cy="102.0" r="0.35" fill="#09090B"/>
<circle cx="66.0" cy="102.0" r="0.35" fill="#09090B"/>
<circle cx="78.0" cy="102.0" r="0.35" fill="#09090B"/>
<circle cx="90.0" cy="102.0" r="0.35" fill="#09090B"/>
<circle cx="102.0" cy="102.0" r="0.35" fill="#09090B"/>
<circle cx="114.0" cy="102.0" r="0.44" fill="#09090B"/>
<circle cx="126.0" cy="102.0" r="0.55" fill="#09090B"/>
<circle cx="138.0" cy="102.0" r="0.67" fill="#09090B"/>
<circle cx="150.0" cy="102.0" r="0.79" fill="#09090B"/>
<circle cx="162.0" cy="102.0" r="0.91" fill="#09090B"/>
<circle cx="174.0" cy="102.0" r="1.04" fill="#09090B"/>
<circle cx="186.0" cy="102.0" r="1.18" fill="#09090B"/>
<circle cx="198.0" cy="102.0" r="1.31" fill="#09090B"/>
<circle cx="210.0" cy="102.0" r="1.45" fill="#09090B"/>
<circle cx="222.0" cy="102.0" r="1.59" fill="#09090B"/>
<circle cx="234.0" cy="102.0" r="1.73" fill="#09090B"/>
<circle cx="246.0" cy="102.0" r="1.88" fill="#09090B"/>
<circle cx="258.0" cy="102.0" r="2.02" fill="#09090B"/>
<circle cx="270.0" cy="102.0" r="2.17" fill="#09090B"/>
<circle cx="282.0" cy="102.0" r="2.33" fill="#09090B"/>
<circle cx="294.0" cy="102.0" r="2.48" fill="#09090B"/>
<circle cx="306.0" cy="102.0" r="2.64" fill="#09090B"/>
<circle cx="318.0" cy="102.0" r="2.79" fill="#09090B"/>
<circle cx="330.0" cy="102.0" r="2.95" fill="#09090B"/>
<circle cx="42.0" cy="114.0" r="0.35" fill="#09090B"/>
<circle cx="54.0" cy="114.0" r="0.35" fill="#09090B"/>
<circle cx="66.0" cy="114.0" r="0.35" fill="#09090B"/>
<circle cx="78.0" cy="114.0" r="0.35" fill="#09090B"/>
<circle cx="90.0" cy="114.0" r="0.39" fill="#09090B"/>
<circle cx="102.0" cy="114.0" r="0.50" fill="#09090B"/>
<circle cx="114.0" cy="114.0" r="0.62" fill="#09090B"/>
<circle cx="126.0" cy="114.0" r="0.74" fill="#09090B"/>
<circle cx="138.0" cy="114.0" r="0.86" fill="#09090B"/>
<circle cx="150.0" cy="114.0" r="0.99" fill="#09090B"/>
<circle cx="162.0" cy="114.0" r="1.12" fill="#09090B"/>
<circle cx="174.0" cy="114.0" r="1.25" fill="#09090B"/>
<circle cx="186.0" cy="114.0" r="1.39" fill="#09090B"/>
<circle cx="198.0" cy="114.0" r="1.53" fill="#09090B"/>
<circle cx="210.0" cy="114.0" r="1.67" fill="#09090B"/>
<circle cx="222.0" cy="114.0" r="1.82" fill="#09090B"/>
<circle cx="234.0" cy="114.0" r="1.96" fill="#09090B"/>
<circle cx="246.0" cy="114.0" r="2.11" fill="#09090B"/>
<circle cx="258.0" cy="114.0" r="2.26" fill="#09090B"/>
<circle cx="270.0" cy="114.0" r="2.42" fill="#09090B"/>
<circle cx="282.0" cy="114.0" r="2.57" fill="#09090B"/>
<circle cx="294.0" cy="114.0" r="2.73" fill="#09090B"/>
<circle cx="306.0" cy="114.0" r="2.89" fill="#09090B"/>
<circle cx="318.0" cy="114.0" r="3.05" fill="#09090B"/>
<circle cx="330.0" cy="114.0" r="3.21" fill="#09090B"/>
<circle cx="18.0" cy="126.0" r="0.35" fill="#09090B"/>
<circle cx="30.0" cy="126.0" r="0.35" fill="#09090B"/>
<circle cx="42.0" cy="126.0" r="0.35" fill="#09090B"/>
<circle cx="54.0" cy="126.0" r="0.35" fill="#09090B"/>
<circle cx="66.0" cy="126.0" r="0.35" fill="#09090B"/>
<circle cx="78.0" cy="126.0" r="0.46" fill="#09090B"/>
<circle cx="90.0" cy="126.0" r="0.57" fill="#09090B"/>
<circle cx="102.0" cy="126.0" r="0.69" fill="#09090B"/>
<circle cx="114.0" cy="126.0" r="0.81" fill="#09090B"/>
<circle cx="126.0" cy="126.0" r="0.94" fill="#09090B"/>
<circle cx="138.0" cy="126.0" r="1.07" fill="#09090B"/>
<circle cx="150.0" cy="126.0" r="1.20" fill="#09090B"/>
<circle cx="162.0" cy="126.0" r="1.33" fill="#09090B"/>
<circle cx="174.0" cy="126.0" r="1.47" fill="#09090B"/>
<circle cx="186.0" cy="126.0" r="1.61" fill="#09090B"/>
<circle cx="198.0" cy="126.0" r="1.76" fill="#09090B"/>
<circle cx="210.0" cy="126.0" r="1.90" fill="#09090B"/>
<circle cx="222.0" cy="126.0" r="2.05" fill="#09090B"/>
<circle cx="234.0" cy="126.0" r="2.20" fill="#09090B"/>
<circle cx="246.0" cy="126.0" r="2.35" fill="#09090B"/>
<circle cx="258.0" cy="126.0" r="2.51" fill="#09090B"/>
<circle cx="270.0" cy="126.0" r="2.66" fill="#09090B"/>
<circle cx="282.0" cy="126.0" r="2.82" fill="#09090B"/>
<circle cx="294.0" cy="126.0" r="2.98" fill="#09090B"/>
<circle cx="306.0" cy="126.0" r="3.14" fill="#09090B"/>
<circle cx="318.0" cy="126.0" r="3.31" fill="#09090B"/>
<circle cx="330.0" cy="126.0" r="3.47" fill="#09090B"/>
<circle cx="6.0" cy="138.0" r="0.35" fill="#09090B"/>
<circle cx="18.0" cy="138.0" r="0.35" fill="#09090B"/>
<circle cx="30.0" cy="138.0" r="0.35" fill="#09090B"/>
<circle cx="42.0" cy="138.0" r="0.35" fill="#09090B"/>
<circle cx="54.0" cy="138.0" r="0.41" fill="#09090B"/>
<circle cx="66.0" cy="138.0" r="0.52" fill="#09090B"/>
<circle cx="78.0" cy="138.0" r="0.64" fill="#09090B"/>
<circle cx="90.0" cy="138.0" r="0.76" fill="#09090B"/>
<circle cx="102.0" cy="138.0" r="0.89" fill="#09090B"/>
<circle cx="114.0" cy="138.0" r="1.01" fill="#09090B"/>
<circle cx="126.0" cy="138.0" r="1.14" fill="#09090B"/>
<circle cx="138.0" cy="138.0" r="1.28" fill="#09090B"/>
<circle cx="150.0" cy="138.0" r="1.42" fill="#09090B"/>
<circle cx="162.0" cy="138.0" r="1.55" fill="#09090B"/>
<circle cx="174.0" cy="138.0" r="1.70" fill="#09090B"/>
<circle cx="186.0" cy="138.0" r="1.84" fill="#09090B"/>
<circle cx="198.0" cy="138.0" r="1.99" fill="#09090B"/>
<circle cx="210.0" cy="138.0" r="2.14" fill="#09090B"/>
<circle cx="222.0" cy="138.0" r="2.29" fill="#09090B"/>
<circle cx="234.0" cy="138.0" r="2.44" fill="#09090B"/>
<circle cx="246.0" cy="138.0" r="2.60" fill="#09090B"/>
<circle cx="258.0" cy="138.0" r="2.76" fill="#09090B"/>
<circle cx="270.0" cy="138.0" r="2.91" fill="#09090B"/>
<circle cx="282.0" cy="138.0" r="3.08" fill="#09090B"/>
<circle cx="294.0" cy="138.0" r="3.24" fill="#09090B"/>
<circle cx="306.0" cy="138.0" r="3.40" fill="#09090B"/>
<circle cx="318.0" cy="138.0" r="3.57" fill="#09090B"/>
<circle cx="330.0" cy="138.0" r="3.73" fill="#09090B"/>
<circle cx="6.0" cy="150.0" r="0.35" fill="#09090B"/>
<circle cx="18.0" cy="150.0" r="0.35" fill="#09090B"/>
<circle cx="30.0" cy="150.0" r="0.37" fill="#09090B"/>
<circle cx="42.0" cy="150.0" r="0.48" fill="#09090B"/>
<circle cx="54.0" cy="150.0" r="0.59" fill="#09090B"/>
<circle cx="66.0" cy="150.0" r="0.71" fill="#09090B"/>
<circle cx="78.0" cy="150.0" r="0.83" fill="#09090B"/>
<circle cx="90.0" cy="150.0" r="0.96" fill="#09090B"/>
<circle cx="102.0" cy="150.0" r="1.09" fill="#09090B"/>
<circle cx="114.0" cy="150.0" r="1.22" fill="#09090B"/>
<circle cx="126.0" cy="150.0" r="1.36" fill="#09090B"/>
<circle cx="138.0" cy="150.0" r="1.50" fill="#09090B"/>
<circle cx="150.0" cy="150.0" r="1.64" fill="#09090B"/>
<circle cx="162.0" cy="150.0" r="1.78" fill="#09090B"/>
<circle cx="174.0" cy="150.0" r="1.93" fill="#09090B"/>
<circle cx="186.0" cy="150.0" r="2.08" fill="#09090B"/>
<circle cx="198.0" cy="150.0" r="2.23" fill="#09090B"/>
<circle cx="210.0" cy="150.0" r="2.38" fill="#09090B"/>
<circle cx="222.0" cy="150.0" r="2.53" fill="#09090B"/>
<circle cx="234.0" cy="150.0" r="2.69" fill="#09090B"/>
<circle cx="246.0" cy="150.0" r="2.85" fill="#09090B"/>
<circle cx="258.0" cy="150.0" r="3.01" fill="#09090B"/>
<circle cx="270.0" cy="150.0" r="3.17" fill="#09090B"/>
<circle cx="282.0" cy="150.0" r="3.33" fill="#09090B"/>
<circle cx="294.0" cy="150.0" r="3.50" fill="#09090B"/>
<circle cx="306.0" cy="150.0" r="3.67" fill="#09090B"/>
<circle cx="318.0" cy="150.0" r="3.83" fill="#09090B"/>
<circle cx="330.0" cy="150.0" r="4.00" fill="#09090B"/>
<circle cx="6.0" cy="162.0" r="0.35" fill="#09090B"/>
<circle cx="18.0" cy="162.0" r="0.43" fill="#09090B"/>
<circle cx="30.0" cy="162.0" r="0.54" fill="#09090B"/>
<circle cx="42.0" cy="162.0" r="0.66" fill="#09090B"/>
<circle cx="54.0" cy="162.0" r="0.78" fill="#09090B"/>
<circle cx="66.0" cy="162.0" r="0.91" fill="#09090B"/>
<circle cx="78.0" cy="162.0" r="1.04" fill="#09090B"/>
<circle cx="90.0" cy="162.0" r="1.17" fill="#09090B"/>
<circle cx="102.0" cy="162.0" r="1.30" fill="#09090B"/>
<circle cx="114.0" cy="162.0" r="1.44" fill="#09090B"/>
<circle cx="126.0" cy="162.0" r="1.58" fill="#09090B"/>
<circle cx="138.0" cy="162.0" r="1.72" fill="#09090B"/>
<circle cx="150.0" cy="162.0" r="1.87" fill="#09090B"/>
<circle cx="162.0" cy="162.0" r="2.02" fill="#09090B"/>
<circle cx="174.0" cy="162.0" r="2.16" fill="#09090B"/>
<circle cx="186.0" cy="162.0" r="2.32" fill="#09090B"/>
<circle cx="198.0" cy="162.0" r="2.47" fill="#09090B"/>
<circle cx="210.0" cy="162.0" r="2.63" fill="#09090B"/>
<circle cx="222.0" cy="162.0" r="2.78" fill="#09090B"/>
<circle cx="234.0" cy="162.0" r="2.94" fill="#09090B"/>
<circle cx="246.0" cy="162.0" r="3.10" fill="#09090B"/>
<circle cx="258.0" cy="162.0" r="3.27" fill="#09090B"/>
<circle cx="270.0" cy="162.0" r="3.43" fill="#09090B"/>
<circle cx="282.0" cy="162.0" r="3.60" fill="#09090B"/>
<circle cx="294.0" cy="162.0" r="3.76" fill="#09090B"/>
<circle cx="306.0" cy="162.0" r="3.93" fill="#09090B"/>
<circle cx="318.0" cy="162.0" r="4.10" fill="#09090B"/>
<circle cx="330.0" cy="162.0" r="4.28" fill="#09090B"/>
<circle cx="6.0" cy="174.0" r="0.50" fill="#09090B"/>
<circle cx="18.0" cy="174.0" r="0.61" fill="#09090B"/>
<circle cx="30.0" cy="174.0" r="0.73" fill="#09090B"/>
<circle cx="42.0" cy="174.0" r="0.86" fill="#09090B"/>
<circle cx="54.0" cy="174.0" r="0.98" fill="#09090B"/>
<circle cx="66.0" cy="174.0" r="1.11" fill="#09090B"/>
<circle cx="78.0" cy="174.0" r="1.25" fill="#09090B"/>
<circle cx="90.0" cy="174.0" r="1.38" fill="#09090B"/>
<circle cx="102.0" cy="174.0" r="1.52" fill="#09090B"/>
<circle cx="114.0" cy="174.0" r="1.66" fill="#09090B"/>
<circle cx="126.0" cy="174.0" r="1.81" fill="#09090B"/>
<circle cx="138.0" cy="174.0" r="1.95" fill="#09090B"/>
<circle cx="150.0" cy="174.0" r="2.10" fill="#09090B"/>
<circle cx="162.0" cy="174.0" r="2.25" fill="#09090B"/>
<circle cx="174.0" cy="174.0" r="2.41" fill="#09090B"/>
<circle cx="186.0" cy="174.0" r="2.56" fill="#09090B"/>
<circle cx="198.0" cy="174.0" r="2.72" fill="#09090B"/>
<circle cx="210.0" cy="174.0" r="2.88" fill="#09090B"/>
<circle cx="222.0" cy="174.0" r="3.04" fill="#09090B"/>
<circle cx="234.0" cy="174.0" r="3.20" fill="#09090B"/>
<circle cx="246.0" cy="174.0" r="3.36" fill="#09090B"/>
<circle cx="258.0" cy="174.0" r="3.53" fill="#09090B"/>
<circle cx="270.0" cy="174.0" r="3.70" fill="#09090B"/>
<circle cx="282.0" cy="174.0" r="3.86" fill="#09090B"/>
<circle cx="294.0" cy="174.0" r="4.03" fill="#09090B"/>
<circle cx="306.0" cy="174.0" r="4.21" fill="#09090B"/>
<circle cx="318.0" cy="174.0" r="4.38" fill="#09090B"/>
<circle cx="330.0" cy="174.0" r="4.55" fill="#09090B"/>
<circle cx="6.0" cy="186.0" r="0.68" fill="#09090B"/>
<circle cx="18.0" cy="186.0" r="0.80" fill="#09090B"/>
<circle cx="30.0" cy="186.0" r="0.93" fill="#09090B"/>
<circle cx="42.0" cy="186.0" r="1.06" fill="#09090B"/>
<circle cx="54.0" cy="186.0" r="1.19" fill="#09090B"/>
<circle cx="66.0" cy="186.0" r="1.33" fill="#09090B"/>
<circle cx="78.0" cy="186.0" r="1.46" fill="#09090B"/>
<circle cx="90.0" cy="186.0" r="1.60" fill="#09090B"/>
<circle cx="102.0" cy="186.0" r="1.75" fill="#09090B"/>
<circle cx="114.0" cy="186.0" r="1.89" fill="#09090B"/>
<circle cx="126.0" cy="186.0" r="2.04" fill="#09090B"/>
<circle cx="138.0" cy="186.0" r="2.19" fill="#09090B"/>
<circle cx="150.0" cy="186.0" r="2.34" fill="#09090B"/>
<circle cx="162.0" cy="186.0" r="2.50" fill="#09090B"/>
<circle cx="174.0" cy="186.0" r="2.65" fill="#09090B"/>
<circle cx="186.0" cy="186.0" r="2.81" fill="#09090B"/>
<circle cx="198.0" cy="186.0" r="2.97" fill="#09090B"/>
<circle cx="210.0" cy="186.0" r="3.13" fill="#09090B"/>
<circle cx="222.0" cy="186.0" r="3.30" fill="#09090B"/>
<circle cx="234.0" cy="186.0" r="3.46" fill="#09090B"/>
<circle cx="246.0" cy="186.0" r="3.63" fill="#09090B"/>
<circle cx="258.0" cy="186.0" r="3.79" fill="#09090B"/>
<circle cx="270.0" cy="186.0" r="3.96" fill="#09090B"/>
<circle cx="282.0" cy="186.0" r="4.13" fill="#09090B"/>
<circle cx="294.0" cy="186.0" r="4.31" fill="#09090B"/>
<circle cx="306.0" cy="186.0" r="4.48" fill="#09090B"/>
<circle cx="318.0" cy="186.0" r="4.66" fill="#09090B"/>
<circle cx="330.0" cy="186.0" r="4.83" fill="#09090B"/>
<circle cx="6.0" cy="198.0" r="0.88" fill="#09090B"/>
<circle cx="18.0" cy="198.0" r="1.01" fill="#09090B"/>
<circle cx="30.0" cy="198.0" r="1.14" fill="#09090B"/>
<circle cx="42.0" cy="198.0" r="1.27" fill="#09090B"/>
<circle cx="54.0" cy="198.0" r="1.41" fill="#09090B"/>
<circle cx="66.0" cy="198.0" r="1.55" fill="#09090B"/>
<circle cx="78.0" cy="198.0" r="1.69" fill="#09090B"/>
<circle cx="90.0" cy="198.0" r="1.83" fill="#09090B"/>
<circle cx="102.0" cy="198.0" r="1.98" fill="#09090B"/>
<circle cx="114.0" cy="198.0" r="2.13" fill="#09090B"/>
<circle cx="126.0" cy="198.0" r="2.28" fill="#09090B"/>
<circle cx="138.0" cy="198.0" r="2.43" fill="#09090B"/>
<circle cx="150.0" cy="198.0" r="2.59" fill="#09090B"/>
<circle cx="162.0" cy="198.0" r="2.75" fill="#09090B"/>
<circle cx="174.0" cy="198.0" r="2.91" fill="#09090B"/>
<circle cx="186.0" cy="198.0" r="3.07" fill="#09090B"/>
<circle cx="198.0" cy="198.0" r="3.23" fill="#09090B"/>
<circle cx="210.0" cy="198.0" r="3.39" fill="#09090B"/>
<circle cx="222.0" cy="198.0" r="3.56" fill="#09090B"/>
<circle cx="234.0" cy="198.0" r="3.73" fill="#09090B"/>
<circle cx="246.0" cy="198.0" r="3.89" fill="#09090B"/>
<circle cx="258.0" cy="198.0" r="4.06" fill="#09090B"/>
<circle cx="270.0" cy="198.0" r="4.24" fill="#09090B"/>
<circle cx="282.0" cy="198.0" r="4.41" fill="#09090B"/>
<circle cx="294.0" cy="198.0" r="4.58" fill="#09090B"/>
<circle cx="306.0" cy="198.0" r="4.76" fill="#09090B"/>
<circle cx="318.0" cy="198.0" r="4.94" fill="#09090B"/>
<circle cx="330.0" cy="198.0" r="5.11" fill="#09090B"/>
<circle cx="6.0" cy="210.0" r="1.08" fill="#09090B"/>
<circle cx="18.0" cy="210.0" r="1.21" fill="#09090B"/>
<circle cx="30.0" cy="210.0" r="1.35" fill="#09090B"/>
<circle cx="42.0" cy="210.0" r="1.49" fill="#09090B"/>
<circle cx="54.0" cy="210.0" r="1.63" fill="#09090B"/>
<circle cx="66.0" cy="210.0" r="1.77" fill="#09090B"/>
<circle cx="78.0" cy="210.0" r="1.92" fill="#09090B"/>
<circle cx="90.0" cy="210.0" r="2.07" fill="#09090B"/>
<circle cx="102.0" cy="210.0" r="2.22" fill="#09090B"/>
<circle cx="114.0" cy="210.0" r="2.37" fill="#09090B"/>
<circle cx="126.0" cy="210.0" r="2.52" fill="#09090B"/>
<circle cx="138.0" cy="210.0" r="2.68" fill="#09090B"/>
<circle cx="150.0" cy="210.0" r="2.84" fill="#09090B"/>
<circle cx="162.0" cy="210.0" r="3.00" fill="#09090B"/>
<circle cx="174.0" cy="210.0" r="3.16" fill="#09090B"/>
<circle cx="186.0" cy="210.0" r="3.32" fill="#09090B"/>
<circle cx="198.0" cy="210.0" r="3.49" fill="#09090B"/>
<circle cx="210.0" cy="210.0" r="3.66" fill="#09090B"/>
<circle cx="222.0" cy="210.0" r="3.82" fill="#09090B"/>
<circle cx="234.0" cy="210.0" r="3.99" fill="#09090B"/>
<circle cx="246.0" cy="210.0" r="4.16" fill="#09090B"/>
<circle cx="258.0" cy="210.0" r="4.34" fill="#09090B"/>
<circle cx="270.0" cy="210.0" r="4.51" fill="#09090B"/>
<circle cx="282.0" cy="210.0" r="4.69" fill="#09090B"/>
<circle cx="294.0" cy="210.0" r="4.86" fill="#09090B"/>
<circle cx="306.0" cy="210.0" r="5.04" fill="#09090B"/>
<circle cx="318.0" cy="210.0" r="5.22" fill="#09090B"/>
<circle cx="330.0" cy="210.0" r="5.40" fill="#09090B"/>
</svg>